<?xml version="1.0" encoding="UTF-8" standalone="no"?>
<svg
   xmlns:dc="http://purl.org/dc/elements/1.1/"
   xmlns:cc="http://creativecommons.org/ns#"
   xmlns:rdf="http://www.w3.org/1999/02/22-rdf-syntax-ns#"
   xmlns:svg="http://www.w3.org/2000/svg"
   xmlns="http://www.w3.org/2000/svg"
   viewBox="0 0 1145.196 816.37732"
   height="816.37732"
   width="1145.196"
   xml:space="preserve"
   id="svg2"
   version="1.1"><metadata
     id="metadata8"><rdf:RDF><cc:Work
         rdf:about=""><dc:format>image/svg+xml</dc:format><dc:type
           rdf:resource="http://purl.org/dc/dcmitype/StillImage" /><dc:title></dc:title></cc:Work></rdf:RDF></metadata><defs
     id="defs6"><clipPath
       id="clipPath18"
       clipPathUnits="userSpaceOnUse"><path
         id="path16"
         d="M 0,612.283 H 858.897 V 0 H 0 Z" /></clipPath><clipPath
       id="clipPath26"
       clipPathUnits="userSpaceOnUse"><path
         id="path24"
         d="M 0,612.283 H 858.897 V 0 H 0 Z" /></clipPath><clipPath
       id="clipPath40"
       clipPathUnits="userSpaceOnUse"><path
         id="path38"
         d="M -300.203,909.235 H 1257.79 V 438.394 H -300.203 Z" /></clipPath><pattern
       id="pattern62"
       height="30"
       width="38.6667"
       y="0"
       x="0"
       patternUnits="userSpaceOnUse"
       patternTransform="matrix(3.96955,0,0,1.73114,21223.8,-382.077)"><g
         id="g44"
         transform="translate(0,29)"><path
           id="path42"
           style="fill:none;stroke:#231f20;stroke-opacity:1;stroke-width:0.25;stroke-linecap:butt;stroke-linejoin:miter;stroke-miterlimit:10;stroke-dasharray:none"
           d="m 0,0 c 4.833,0 4.833,-4 9.666,-4 4.831,0 4.831,4 9.662,4 4.835,0 4.835,-4 9.669,-4 4.835,0 4.835,4 9.67,4" /></g><g
         id="g48"
         transform="translate(0,23)"><path
           id="path46"
           style="fill:none;stroke:#231f20;stroke-opacity:1;stroke-width:0.25;stroke-linecap:butt;stroke-linejoin:miter;stroke-miterlimit:10;stroke-dasharray:none"
           d="m 0,0 c 4.833,0 4.833,-4 9.666,-4 4.831,0 4.831,4 9.662,4 4.835,0 4.835,-4 9.669,-4 4.835,0 4.835,4 9.67,4" /></g><g
         id="g52"
         transform="translate(0,17)"><path
           id="path50"
           style="fill:none;stroke:#231f20;stroke-opacity:1;stroke-width:0.25;stroke-linecap:butt;stroke-linejoin:miter;stroke-miterlimit:10;stroke-dasharray:none"
           d="m 0,0 c 4.833,0 4.833,-4 9.666,-4 4.831,0 4.831,4 9.662,4 4.835,0 4.835,-4 9.669,-4 4.835,0 4.835,4 9.67,4" /></g><g
         id="g56"
         transform="translate(0,11)"><path
           id="path54"
           style="fill:none;stroke:#231f20;stroke-opacity:1;stroke-width:0.25;stroke-linecap:butt;stroke-linejoin:miter;stroke-miterlimit:10;stroke-dasharray:none"
           d="m 0,0 c 4.833,0 4.833,-4 9.666,-4 4.831,0 4.831,4 9.662,4 4.835,0 4.835,-4 9.669,-4 4.835,0 4.835,4 9.67,4" /></g><g
         id="g60"
         transform="translate(0,5)"><path
           id="path58"
           style="fill:none;stroke:#231f20;stroke-opacity:1;stroke-width:0.25;stroke-linecap:butt;stroke-linejoin:miter;stroke-miterlimit:10;stroke-dasharray:none"
           d="m 0,0 c 4.833,0 4.833,-4 9.666,-4 4.831,0 4.831,4 9.662,4 4.835,0 4.835,-4 9.669,-4 4.835,0 4.835,4 9.67,4" /></g></pattern><clipPath
       id="clipPath78"
       clipPathUnits="userSpaceOnUse"><path
         id="path76"
         d="M -298.313,442.333 H 1259.68 V -28.5076 H -298.313 Z" /></clipPath><pattern
       id="pattern100"
       height="30"
       width="38.6667"
       y="0"
       x="0"
       patternUnits="userSpaceOnUse"
       patternTransform="matrix(3.96955,0,0,1.73114,21225.7,-433.505)"><g
         id="g82"
         transform="translate(0,29)"><path
           id="path80"
           style="fill:none;stroke:#231f20;stroke-opacity:1;stroke-width:0.25;stroke-linecap:butt;stroke-linejoin:miter;stroke-miterlimit:10;stroke-dasharray:none"
           d="m 0,0 c 4.833,0 4.833,-4 9.666,-4 4.831,0 4.831,4 9.662,4 4.835,0 4.835,-4 9.669,-4 4.835,0 4.835,4 9.67,4" /></g><g
         id="g86"
         transform="translate(0,23)"><path
           id="path84"
           style="fill:none;stroke:#231f20;stroke-opacity:1;stroke-width:0.25;stroke-linecap:butt;stroke-linejoin:miter;stroke-miterlimit:10;stroke-dasharray:none"
           d="m 0,0 c 4.833,0 4.833,-4 9.666,-4 4.831,0 4.831,4 9.662,4 4.835,0 4.835,-4 9.669,-4 4.835,0 4.835,4 9.67,4" /></g><g
         id="g90"
         transform="translate(0,17)"><path
           id="path88"
           style="fill:none;stroke:#231f20;stroke-opacity:1;stroke-width:0.25;stroke-linecap:butt;stroke-linejoin:miter;stroke-miterlimit:10;stroke-dasharray:none"
           d="m 0,0 c 4.833,0 4.833,-4 9.666,-4 4.831,0 4.831,4 9.662,4 4.835,0 4.835,-4 9.669,-4 4.835,0 4.835,4 9.67,4" /></g><g
         id="g94"
         transform="translate(0,11)"><path
           id="path92"
           style="fill:none;stroke:#231f20;stroke-opacity:1;stroke-width:0.25;stroke-linecap:butt;stroke-linejoin:miter;stroke-miterlimit:10;stroke-dasharray:none"
           d="m 0,0 c 4.833,0 4.833,-4 9.666,-4 4.831,0 4.831,4 9.662,4 4.835,0 4.835,-4 9.669,-4 4.835,0 4.835,4 9.67,4" /></g><g
         id="g98"
         transform="translate(0,5)"><path
           id="path96"
           style="fill:none;stroke:#231f20;stroke-opacity:1;stroke-width:0.25;stroke-linecap:butt;stroke-linejoin:miter;stroke-miterlimit:10;stroke-dasharray:none"
           d="m 0,0 c 4.833,0 4.833,-4 9.666,-4 4.831,0 4.831,4 9.662,4 4.835,0 4.835,-4 9.669,-4 4.835,0 4.835,4 9.67,4" /></g></pattern><clipPath
       id="clipPath116"
       clipPathUnits="userSpaceOnUse"><path
         id="path114"
         d="M 26.8667,591.239 H 832.031 V 21.0435 H 26.8667 Z" /></clipPath><clipPath
       id="clipPath132"
       clipPathUnits="userSpaceOnUse"><path
         id="path130"
         d="M -298.581,908.914 H 1259.41 V 438.073 H -298.581 Z" /></clipPath><pattern
       id="pattern154"
       height="30"
       width="38.6667"
       y="0"
       x="0"
       patternUnits="userSpaceOnUse"
       patternTransform="matrix(3.96955,0,0,1.73114,21072,-382.398)"><g
         id="g136"
         transform="translate(0,29)"><path
           id="path134"
           style="fill:none;stroke:#231f20;stroke-opacity:1;stroke-width:0.25;stroke-linecap:butt;stroke-linejoin:miter;stroke-miterlimit:10;stroke-dasharray:none"
           d="m 0,0 c 4.833,0 4.833,-4 9.666,-4 4.831,0 4.831,4 9.662,4 4.835,0 4.835,-4 9.669,-4 4.835,0 4.835,4 9.67,4" /></g><g
         id="g140"
         transform="translate(0,23)"><path
           id="path138"
           style="fill:none;stroke:#231f20;stroke-opacity:1;stroke-width:0.25;stroke-linecap:butt;stroke-linejoin:miter;stroke-miterlimit:10;stroke-dasharray:none"
           d="m 0,0 c 4.833,0 4.833,-4 9.666,-4 4.831,0 4.831,4 9.662,4 4.835,0 4.835,-4 9.669,-4 4.835,0 4.835,4 9.67,4" /></g><g
         id="g144"
         transform="translate(0,17)"><path
           id="path142"
           style="fill:none;stroke:#231f20;stroke-opacity:1;stroke-width:0.25;stroke-linecap:butt;stroke-linejoin:miter;stroke-miterlimit:10;stroke-dasharray:none"
           d="m 0,0 c 4.833,0 4.833,-4 9.666,-4 4.831,0 4.831,4 9.662,4 4.835,0 4.835,-4 9.669,-4 4.835,0 4.835,4 9.67,4" /></g><g
         id="g148"
         transform="translate(0,11)"><path
           id="path146"
           style="fill:none;stroke:#231f20;stroke-opacity:1;stroke-width:0.25;stroke-linecap:butt;stroke-linejoin:miter;stroke-miterlimit:10;stroke-dasharray:none"
           d="m 0,0 c 4.833,0 4.833,-4 9.666,-4 4.831,0 4.831,4 9.662,4 4.835,0 4.835,-4 9.669,-4 4.835,0 4.835,4 9.67,4" /></g><g
         id="g152"
         transform="translate(0,5)"><path
           id="path150"
           style="fill:none;stroke:#231f20;stroke-opacity:1;stroke-width:0.25;stroke-linecap:butt;stroke-linejoin:miter;stroke-miterlimit:10;stroke-dasharray:none"
           d="m 0,0 c 4.833,0 4.833,-4 9.666,-4 4.831,0 4.831,4 9.662,4 4.835,0 4.835,-4 9.669,-4 4.835,0 4.835,4 9.67,4" /></g></pattern><clipPath
       id="clipPath170"
       clipPathUnits="userSpaceOnUse"><path
         id="path168"
         d="M 0,0 H 858.897 V 439.203 H 0 Z" /></clipPath><clipPath
       id="clipPath178"
       clipPathUnits="userSpaceOnUse"><path
         id="path176"
         d="M -298.313,442.333 H 1259.68 V -28.5076 H -298.313 Z" /></clipPath><pattern
       id="pattern200"
       height="30"
       width="38.6667"
       y="0"
       x="0"
       patternUnits="userSpaceOnUse"
       patternTransform="matrix(3.96955,0,0,1.73114,21072.2,-381.571)"><g
         id="g182"
         transform="translate(0,29)"><path
           id="path180"
           style="fill:none;stroke:#231f20;stroke-opacity:1;stroke-width:0.25;stroke-linecap:butt;stroke-linejoin:miter;stroke-miterlimit:10;stroke-dasharray:none"
           d="m 0,0 c 4.833,0 4.833,-4 9.666,-4 4.831,0 4.831,4 9.662,4 4.835,0 4.835,-4 9.669,-4 4.835,0 4.835,4 9.67,4" /></g><g
         id="g186"
         transform="translate(0,23)"><path
           id="path184"
           style="fill:none;stroke:#231f20;stroke-opacity:1;stroke-width:0.25;stroke-linecap:butt;stroke-linejoin:miter;stroke-miterlimit:10;stroke-dasharray:none"
           d="m 0,0 c 4.833,0 4.833,-4 9.666,-4 4.831,0 4.831,4 9.662,4 4.835,0 4.835,-4 9.669,-4 4.835,0 4.835,4 9.67,4" /></g><g
         id="g190"
         transform="translate(0,17)"><path
           id="path188"
           style="fill:none;stroke:#231f20;stroke-opacity:1;stroke-width:0.25;stroke-linecap:butt;stroke-linejoin:miter;stroke-miterlimit:10;stroke-dasharray:none"
           d="m 0,0 c 4.833,0 4.833,-4 9.666,-4 4.831,0 4.831,4 9.662,4 4.835,0 4.835,-4 9.669,-4 4.835,0 4.835,4 9.67,4" /></g><g
         id="g194"
         transform="translate(0,11)"><path
           id="path192"
           style="fill:none;stroke:#231f20;stroke-opacity:1;stroke-width:0.25;stroke-linecap:butt;stroke-linejoin:miter;stroke-miterlimit:10;stroke-dasharray:none"
           d="m 0,0 c 4.833,0 4.833,-4 9.666,-4 4.831,0 4.831,4 9.662,4 4.835,0 4.835,-4 9.669,-4 4.835,0 4.835,4 9.67,4" /></g><g
         id="g198"
         transform="translate(0,5)"><path
           id="path196"
           style="fill:none;stroke:#231f20;stroke-opacity:1;stroke-width:0.25;stroke-linecap:butt;stroke-linejoin:miter;stroke-miterlimit:10;stroke-dasharray:none"
           d="m 0,0 c 4.833,0 4.833,-4 9.666,-4 4.831,0 4.831,4 9.662,4 4.835,0 4.835,-4 9.669,-4 4.835,0 4.835,4 9.67,4" /></g></pattern><clipPath
       id="clipPath216"
       clipPathUnits="userSpaceOnUse"><path
         id="path214"
         d="M 0,612.283 H 858.897 V 0 H 0 Z" /></clipPath><clipPath
       id="clipPath296"
       clipPathUnits="userSpaceOnUse"><path
         id="path294"
         d="m 201.16,54.724 h 191.453 v 64.137 H 201.16 Z" /></clipPath><clipPath
       id="clipPath312"
       clipPathUnits="userSpaceOnUse"><path
         id="path310"
         d="M 0,612.283 H 858.897 V 0 H 0 Z" /></clipPath><clipPath
       id="clipPath336"
       clipPathUnits="userSpaceOnUse"><path
         id="path334"
         d="m 201.16,54.724 h 191.453 v 64.137 H 201.16 Z" /></clipPath><clipPath
       id="clipPath352"
       clipPathUnits="userSpaceOnUse"><path
         id="path350"
         d="M 0,612.283 H 858.897 V 0 H 0 Z" /></clipPath><clipPath
       id="clipPath444"
       clipPathUnits="userSpaceOnUse"><path
         id="path442"
         d="M 199.114,554.205 H 659.783 V 58.0777 H 199.114 Z" /></clipPath><clipPath
       id="clipPath448"
       clipPathUnits="userSpaceOnUse"><path
         id="path446"
         d="m 199.114,58.078 h 460.67 v 496.127 h -460.67 z" /></clipPath></defs><g
     transform="matrix(1.3333333,0,0,-1.3333333,0,816.37733)"
     id="g10"><g
       id="g12"><g
         clip-path="url(#clipPath18)"
         id="g14"><g
           id="g20"><g
             id="g22" /><g
             id="g32"><g
               style="opacity:0.96000701"
               id="g30"
               clip-path="url(#clipPath26)"><path
                 id="path28"
                 style="fill:#403c5e;fill-opacity:1;fill-rule:nonzero;stroke:none"
                 d="M 858.897,612.283 H 0.001 V 10e-4 h 858.896 z" /></g></g></g><g
           id="g34"><g
             id="g36" /><g
             id="g70"><g
               style="opacity:0.36000103"
               id="g68"
               clip-path="url(#clipPath40)"><g
                 id="g66"
                 transform="translate(-211.2759,438.3949)"><path
                   id="path64"
                   style="fill:url(#pattern62);fill-opacity:1;fill-rule:nonzero;stroke:none"
                   d="m 0,0 h 1380.135 c 0,20.955 39.813,37.942 88.926,37.942 v 394.955 c -49.113,0 -88.926,16.988 -88.926,37.943 H 0 C 0,449.885 -39.813,432.897 -88.927,432.897 V 37.942 C -39.813,37.942 0,20.955 0,0" /></g></g></g></g><g
           id="g72"><g
             id="g74" /><g
             id="g108"><g
               style="opacity:0.36000103"
               id="g106"
               clip-path="url(#clipPath78)"><g
                 id="g104"
                 transform="translate(-209.3863,-28.5075)"><path
                   id="path102"
                   style="fill:url(#pattern100);fill-opacity:1;fill-rule:nonzero;stroke:none"
                   d="m 0,0 h 1380.135 c 0,20.955 39.813,37.942 88.927,37.942 v 394.955 c -49.114,0 -88.927,16.988 -88.927,37.944 H 0 C 0,449.885 -39.813,432.897 -88.927,432.897 V 37.942 C -39.813,37.942 0,20.955 0,0" /></g></g></g></g><g
           id="g110"><g
             id="g112" /><g
             id="g124"><g
               style="opacity:0.97999603"
               id="g122"
               clip-path="url(#clipPath116)"><g
                 id="g120"
                 transform="translate(72.8237,21.0433)"><path
                   id="path118"
                   style="fill:#ffffff;fill-opacity:1;fill-rule:nonzero;stroke:none"
                   d="m 0,0 h 713.25 l 45.957,45.949 v 478.297 l -45.957,45.95 H 0 l -45.957,-45.95 V 45.949 Z" /></g></g></g></g><g
           id="g126"><g
             id="g128" /><g
             id="g162"><g
               style="opacity:0.08000183"
               id="g160"
               clip-path="url(#clipPath132)"><g
                 id="g158"
                 transform="translate(-209.6548,438.0726)"><path
                   id="path156"
                   style="fill:url(#pattern154);fill-opacity:1;fill-rule:nonzero;stroke:none"
                   d="m 0,0 h 1380.135 c 0,20.956 39.813,37.943 88.927,37.943 v 394.955 c -49.114,0 -88.927,16.988 -88.927,37.943 L 0,470.841 C 0,449.886 -39.813,432.898 -88.927,432.898 V 37.943 C -39.813,37.943 0,20.956 0,0" /></g></g></g></g></g></g><g
       id="g164"><g
         clip-path="url(#clipPath170)"
         id="g166"><g
           id="g172"><g
             id="g174" /><g
             id="g208"><g
               style="opacity:0.08000183"
               id="g206"
               clip-path="url(#clipPath178)"><g
                 id="g204"
                 transform="translate(-209.3863,-28.5075)"><path
                   id="path202"
                   style="fill:url(#pattern200);fill-opacity:1;fill-rule:nonzero;stroke:none"
                   d="m 0,0 h 1380.135 c 0,20.955 39.813,37.942 88.927,37.942 v 394.955 c -49.114,0 -88.927,16.988 -88.927,37.944 H 0 C 0,449.885 -39.813,432.897 -88.927,432.897 V 37.942 C -39.813,37.942 0,20.955 0,0" /></g></g></g></g></g></g><g
       id="g210"><g
         clip-path="url(#clipPath216)"
         id="g212"><g
           transform="translate(278.06,73.3155)"
           id="g218"><path
             id="path220"
             style="fill:#413a60;fill-opacity:1;fill-rule:nonzero;stroke:none"
             d="m 0,0 v -6.304 c 0,-0.338 0.013,-0.683 0.039,-1.037 0.025,-0.354 0.102,-0.674 0.23,-0.961 0.128,-0.287 0.331,-0.52 0.607,-0.7 0.277,-0.179 0.667,-0.269 1.169,-0.269 0.502,0 0.889,0.09 1.161,0.269 0.271,0.18 0.473,0.413 0.607,0.7 0.133,0.287 0.212,0.607 0.238,0.961 0.026,0.354 0.038,0.699 0.038,1.037 V 0 h 2.998 v -6.718 c 0,-1.804 -0.412,-3.121 -1.237,-3.951 -0.825,-0.831 -2.094,-1.246 -3.805,-1.246 -1.712,0 -2.983,0.415 -3.813,1.246 -0.83,0.83 -1.245,2.147 -1.245,3.951 V 0 Z" /></g><g
           transform="translate(289.7293,61.7235)"
           id="g222"><path
             id="path224"
             style="fill:#413a60;fill-opacity:1;fill-rule:nonzero;stroke:none"
             d="M 0,0 V 11.592 H 3.013 L 8.579,4.505 v 7.087 h 2.998 L 11.577,0 H 8.579 L 3.013,7.087 V 0 Z" /></g><path
           id="path226"
           style="fill:#413a60;fill-opacity:1;fill-rule:nonzero;stroke:none"
           d="m 308.901,61.723 h -3.014 v 11.592 h 3.014 z" /><g
           transform="translate(315.5423,73.3155)"
           id="g228"><path
             id="path230"
             style="fill:#413a60;fill-opacity:1;fill-rule:nonzero;stroke:none"
             d="M 0,0 2.798,-7.057 5.612,0 H 8.887 L 3.997,-11.592 H 1.599 L -3.275,0 Z" /></g><g
           transform="translate(334.391,70.7634)"
           id="g232"><path
             id="path234"
             style="fill:#413a60;fill-opacity:1;fill-rule:nonzero;stroke:none"
             d="M 0,0 H -3.582 V -1.938 H -0.2 V -4.489 H -3.582 V -6.488 H 0 V -9.04 H -6.596 V 2.552 l 6.596,0 z" /></g><g
           transform="translate(341.7243,68.134)"
           id="g236"><path
             id="path238"
             style="fill:#413a60;fill-opacity:1;fill-rule:nonzero;stroke:none"
             d="m 0,0 h 0.569 c 0.594,0 1.05,0.123 1.368,0.369 0.318,0.246 0.477,0.6 0.477,1.062 0,0.46 -0.159,0.814 -0.477,1.06 C 1.619,2.737 1.163,2.86 0.569,2.86 H 0 Z M 6.626,-6.41 H 2.875 L 0,-1.952 V -6.41 H -3.013 V 5.181 H 1.676 C 2.321,5.181 2.885,5.087 3.367,4.897 3.848,4.707 4.246,4.449 4.558,4.121 4.871,3.793 5.107,3.414 5.266,2.983 5.425,2.552 5.504,2.091 5.504,1.599 5.504,0.718 5.291,0.003 4.866,-0.546 4.441,-1.094 3.813,-1.466 2.982,-1.66 Z" /></g><g
           transform="translate(358.1284,70.3483)"
           id="g240"><path
             id="path242"
             style="fill:#413a60;fill-opacity:1;fill-rule:nonzero;stroke:none"
             d="m 0,0 c -0.328,0.267 -0.655,0.464 -0.983,0.592 -0.329,0.128 -0.647,0.192 -0.954,0.192 -0.39,0 -0.707,-0.092 -0.953,-0.277 -0.246,-0.184 -0.369,-0.425 -0.369,-0.722 0,-0.205 0.062,-0.375 0.185,-0.508 0.122,-0.133 0.284,-0.248 0.484,-0.345 0.2,-0.098 0.425,-0.183 0.676,-0.254 0.252,-0.072 0.5,-0.149 0.746,-0.231 0.984,-0.328 1.704,-0.766 2.16,-1.314 0.456,-0.548 0.684,-1.264 0.684,-2.145 0,-0.595 -0.1,-1.133 -0.3,-1.614 C 1.177,-7.108 0.885,-7.521 0.5,-7.864 c -0.384,-0.343 -0.856,-0.61 -1.414,-0.799 -0.559,-0.19 -1.192,-0.285 -1.899,-0.285 -1.466,0 -2.824,0.436 -4.074,1.307 l 1.291,2.429 c 0.451,-0.399 0.897,-0.697 1.338,-0.891 0.441,-0.195 0.876,-0.292 1.306,-0.292 0.493,0 0.859,0.112 1.1,0.338 0.24,0.225 0.361,0.481 0.361,0.768 0,0.174 -0.031,0.325 -0.092,0.453 -0.062,0.129 -0.164,0.246 -0.308,0.354 -0.143,0.108 -0.33,0.208 -0.561,0.3 -0.231,0.093 -0.51,0.195 -0.838,0.308 -0.39,0.123 -0.771,0.258 -1.145,0.407 -0.374,0.148 -0.707,0.347 -0.999,0.592 -0.292,0.246 -0.529,0.556 -0.708,0.931 -0.179,0.374 -0.269,0.847 -0.269,1.421 0,0.574 0.095,1.094 0.285,1.561 0.189,0.466 0.455,0.865 0.799,1.199 0.343,0.333 0.764,0.592 1.261,0.776 0.497,0.185 1.053,0.277 1.668,0.277 0.574,0 1.173,-0.079 1.799,-0.238 C 0.026,2.893 0.625,2.66 1.2,2.352 Z" /></g><path
           id="path244"
           style="fill:#413a60;fill-opacity:1;fill-rule:nonzero;stroke:none"
           d="m 366.861,61.723 h -3.014 v 11.592 h 3.014 z" /><g
           transform="translate(375.8399,70.7634)"
           id="g246"><path
             id="path248"
             style="fill:#413a60;fill-opacity:1;fill-rule:nonzero;stroke:none"
             d="M 0,0 V -9.04 H -3.014 V 0 H -5.489 V 2.552 H 2.475 L 2.475,0 Z" /></g><g
           transform="translate(385.3563,67.2889)"
           id="g250"><path
             id="path252"
             style="fill:#413a60;fill-opacity:1;fill-rule:nonzero;stroke:none"
             d="M 0,0 -4.228,6.027 H -0.63 L 1.522,2.86 3.659,6.027 H 7.257 L 3.013,0 V -5.565 H 0 Z" /></g><g
           transform="translate(250.9917,81.0099)"
           id="g254"><path
             id="path256"
             style="fill:#413a60;fill-opacity:1;fill-rule:nonzero;stroke:none"
             d="M 0,0 1.701,0.001 3.706,5.511 5.709,0.005 7.412,0.007 11.346,10.813 10.353,10.812 7.163,2.031 3.851,10.806 1.784,10.804 3.213,6.872 1.454,2.026 -1.859,10.801 -4.912,10.798 v -0.351 c 1.214,-0.198 1.201,-0.237 1.523,-1.122 z" /></g><g
           transform="translate(288.8385,81.798)"
           id="g258"><path
             id="path260"
             style="fill:#413a60;fill-opacity:1;fill-rule:nonzero;stroke:none"
             d="M 0,0 C -1.076,-0.001 -1.076,-0.001 -1.077,1.203 L -1.085,10.047 -3.182,10.045 -3.173,-0.757 3.211,-0.752 3.21,0.003 Z" /></g><g
           transform="translate(280.274,86.0349)"
           id="g262"><path
             id="path264"
             style="fill:#413a60;fill-opacity:1;fill-rule:nonzero;stroke:none"
             d="M 0,0 C 1.725,0.214 2.686,1.097 2.684,2.934 2.682,5.806 -0.642,5.803 -1.844,5.802 l -3.55,-0.003 0.009,-10.803 2.097,0.002 -0.008,10.05 1.339,0.001 C -0.609,5.05 0.386,4.566 0.388,2.832 0.389,0.86 -1.072,0.478 -2.114,0.477 h -0.271 l 3.441,-5.475 2.297,0.002 z" /></g><g
           transform="translate(297.0444,81.8052)"
           id="g266"><path
             id="path268"
             style="fill:#413a60;fill-opacity:1;fill-rule:nonzero;stroke:none"
             d="M 0,0 C -1.11,-0.001 -1.11,0.432 -1.11,1.057 L -1.117,9.294 0.199,9.296 C 3.217,9.298 3.556,7.485 3.558,4.641 3.561,1.401 2.92,0.003 0,0 m 0.501,10.049 -3.716,-0.004 0.009,-10.802 3.187,0.003 c 3.129,0.003 5.808,0.359 5.804,5.429 -0.004,4.543 -2.233,5.376 -5.284,5.374" /></g><g
           transform="translate(267.7558,81.4385)"
           id="g270"><path
             id="path272"
             style="fill:#413a60;fill-opacity:1;fill-rule:nonzero;stroke:none"
             d="M 0,0 C -2.402,-0.002 -2.59,2.764 -2.592,4.987 -2.594,7.209 -2.411,9.973 -0.009,9.975 2.35,9.977 2.492,7.145 2.494,4.992 2.496,2.832 2.358,0.002 0,0 m -0.001,10.763 c -3.811,-0.004 -4.866,-2.248 -4.863,-5.822 0.003,-3.573 1.062,-5.733 4.873,-5.73 3.653,0.003 4.756,2.166 4.753,5.739 -0.003,3.573 -1.109,5.816 -4.763,5.813" /></g><g
           transform="translate(323.7814,91.8766)"
           id="g274"><path
             id="path276"
             style="fill:#413a60;fill-opacity:1;fill-rule:nonzero;stroke:none"
             d="m 0,0 0.006,-7.022 c 0.001,-1.623 -0.064,-3.403 -2.72,-3.406 -2.295,-0.002 -2.296,1.778 -2.298,3.402 l -0.006,7.021 -2.095,-0.001 0.007,-7.453 c 0.003,-2.92 1.569,-3.724 4.392,-3.721 3.811,0.003 3.876,2.385 3.875,4.533 L 1.155,0.001 Z" /></g><g
           transform="translate(357.6054,91.1523)"
           id="g278"><path
             id="path280"
             style="fill:#413a60;fill-opacity:1;fill-rule:nonzero;stroke:none"
             d="M 0,0 -0.001,0.754 -8.678,0.747 v -0.755 l 3.292,0.003 0.008,-10.048 2.095,0.002 -0.008,10.048 z" /></g><g
           transform="translate(346.1257,91.8966)"
           id="g282"><path
             id="path284"
             style="fill:#413a60;fill-opacity:1;fill-rule:nonzero;stroke:none"
             d="m 0,0 0.007,-8.734 h -0.033 l -5.063,8.729 -2.112,-0.001 0.01,-10.803 1.01,10e-4 -0.007,9.135 h 0.032 l 5.305,-9.13 1.872,0.002 -0.009,10.802 z" /></g><g
           transform="translate(332.5408,83.1064)"
           id="g286"><path
             id="path288"
             style="fill:#413a60;fill-opacity:1;fill-rule:nonzero;stroke:none"
             d="M 0,0 -1.742,4.618 1.676,4.622 Z M 3.186,8.781 1.953,5.374 -2.028,5.371 -3.313,8.775 -6.365,8.773 -6.364,8.421 c 1.213,-0.197 1.198,-0.236 1.522,-1.122 l 3.39,-9.324 1.7,10e-4 3.934,10.806 z" /></g></g></g><g
       id="g290"><g
         clip-path="url(#clipPath296)"
         id="g292"><g
           transform="translate(314.2445,86.425)"
           id="g298"><path
             id="path300"
             style="fill:#413a60;fill-opacity:1;fill-rule:nonzero;stroke:none"
             d="M 0,0 C -0.003,3.574 -1.11,5.816 -4.763,5.813 -8.578,5.81 -9.628,3.565 -9.625,-0.008 c 0.003,-3.573 1.06,-5.734 4.872,-5.731 l 5.261,0.005 -0.001,0.353 c -1.213,0.196 -2.115,0.39 -1.551,1.12 C -0.282,-3.273 0.001,-1.816 0,0 m -4.762,-4.95 c -2.403,-0.002 -2.592,2.765 -2.594,4.987 -0.002,2.222 0.183,4.986 2.586,4.988 2.357,0.003 2.498,-2.83 2.5,-4.983 0.002,-2.16 -0.134,-4.99 -2.492,-4.992" /></g><g
           transform="translate(258.0981,71.828)"
           id="g302"><path
             id="path304"
             style="fill:#413a60;fill-opacity:1;fill-rule:nonzero;stroke:none"
             d="m 0,0 c -5.071,-8.444 -13.884,-13.629 -23.55,-14.063 v -3.042 c 10.736,0.437 20.537,6.163 26.165,15.535 z" /></g></g></g><g
       id="g306"><g
         clip-path="url(#clipPath312)"
         id="g308"><g
           transform="translate(232.8845,70.4279)"
           id="g314"><path
             id="path316"
             style="fill:#ec8a2d;fill-opacity:1;fill-rule:nonzero;stroke:none"
             d="m 0,0 c -6.669,0 -12.923,4.164 -15.251,10.805 -2.945,8.402 1.493,17.633 9.895,20.578 4.069,1.426 8.451,1.183 12.338,-0.686 L 5.66,27.948 c -3.152,1.516 -6.706,1.713 -10.007,0.556 -6.814,-2.389 -10.414,-9.876 -8.026,-16.69 C -9.984,5 -2.497,1.4 4.317,3.788 L 5.326,0.909 C 3.566,0.292 1.768,0 0,0" /></g><g
           transform="translate(219.4548,102.6375)"
           id="g318"><path
             id="path320"
             style="fill:#f3b82d;fill-opacity:1;fill-rule:nonzero;stroke:none"
             d="m 0,0 c 3.629,3.109 8.254,4.918 13.206,5.031 l -0.069,3.05 C 7.415,7.95 2.072,5.844 -2.1,2.224 Z" /></g><g
           transform="translate(215.0867,97.4654)"
           id="g322"><path
             id="path324"
             style="fill:#f3b82d;fill-opacity:1;fill-rule:nonzero;stroke:none"
             d="M 0,0 C 0.543,0.904 1.153,1.751 1.809,2.55 L -0.299,4.783 C -1.145,3.784 -1.926,2.717 -2.615,1.571 c -3.312,-5.516 -4.277,-11.99 -2.719,-18.231 0.917,-3.673 2.648,-7.002 5.038,-9.798 l 2.163,2.163 c -2.006,2.403 -3.461,5.247 -4.242,8.373 C -3.735,-10.471 -2.892,-4.816 0,0" /></g><g
           transform="translate(244.6749,69.0579)"
           id="g326"><path
             id="path328"
             style="fill:#f3b82d;fill-opacity:1;fill-rule:nonzero;stroke:none"
             d="m 0,0 c -6.716,-4.407 -15.502,-4.585 -22.384,-0.451 -0.979,0.588 -1.897,1.249 -2.754,1.97 L -27.3,-0.643 c 1.036,-0.891 2.15,-1.706 3.345,-2.424 3.796,-2.279 8.096,-3.412 12.394,-3.412 4.626,0 9.249,1.314 13.234,3.929 z" /></g></g></g><g
       id="g330"><g
         clip-path="url(#clipPath336)"
         id="g332"><g
           transform="translate(204.2096,85.324)"
           id="g338"><path
             id="path340"
             style="fill:#413a60;fill-opacity:1;fill-rule:nonzero;stroke:none"
             d="m 0,0 h -3.05 c 0.486,-10.371 5.974,-20.323 15.523,-26.058 3.84,-2.305 7.995,-3.752 12.374,-4.315 v 3.083 c -3.816,0.544 -7.444,1.83 -10.804,3.848 C 5.444,-18.278 0.482,-9.336 0,0" /></g><g
           transform="translate(205.6913,103.2975)"
           id="g342"><path
             id="path344"
             style="fill:#413a60;fill-opacity:1;fill-rule:nonzero;stroke:none"
             d="m 0,0 c -2.366,-3.941 -3.777,-8.191 -4.315,-12.483 h 3.07 c 0.522,3.754 1.789,7.464 3.86,10.912 8.243,13.728 26.118,18.19 39.845,9.947 l 1.57,2.615 C 28.86,20.101 9.109,15.169 0,0" /></g></g></g><g
       id="g346"><g
         clip-path="url(#clipPath352)"
         id="g348"><g
           transform="translate(251.1516,98.4532)"
           id="g354"><path
             id="path356"
             style="fill:#f3b82d;fill-opacity:1;fill-rule:nonzero;stroke:none"
             d="m 0,0 2.587,1.603 c -2.198,3.388 -5.274,6.269 -9.109,8.258 -2.327,1.207 -4.791,2.01 -7.307,2.415 l -0.48,-3.003 C -12.11,8.919 -9.958,8.215 -7.923,7.159 -4.593,5.432 -1.919,2.936 0,0" /></g><g
           transform="translate(227.8598,88.6764)"
           id="g358"><path
             id="path360"
             style="fill:#6dcad3;fill-opacity:1;fill-rule:nonzero;stroke:none"
             d="M 0,0 C 0.126,0.351 0.286,0.692 0.483,1.019 1.262,2.317 2.501,3.234 3.969,3.6 4.428,3.715 4.892,3.772 5.353,3.772 6.368,3.772 7.368,3.497 8.26,2.96 9.4,2.276 10.245,1.238 10.683,0 h 3.162 C 13.342,2.25 11.958,4.298 9.831,5.576 5.71,8.05 0.342,6.71 -2.132,2.589 -2.621,1.775 -2.961,0.901 -3.163,0 Z" /></g><g
           transform="translate(238.5423,84.8725)"
           id="g362"><path
             id="path364"
             style="fill:#6dcad3;fill-opacity:1;fill-rule:nonzero;stroke:none"
             d="m 0,0 c -0.125,-0.349 -0.286,-0.688 -0.481,-1.013 -0.779,-1.298 -2.017,-2.215 -3.486,-2.581 -1.469,-0.369 -2.993,-0.14 -4.291,0.639 -1.138,0.684 -1.983,1.72 -2.421,2.955 h -3.162 c 0.016,-0.069 0.024,-0.138 0.041,-0.207 0.565,-2.259 1.975,-4.164 3.971,-5.363 1.374,-0.825 2.911,-1.247 4.473,-1.247 0.708,0 1.422,0.086 2.128,0.263 2.259,0.564 4.163,1.974 5.362,3.971 0.494,0.822 0.834,1.694 1.032,2.583 z" /></g><g
           transform="translate(474.1401,88.597)"
           id="g366"><path
             id="path368"
             style="fill:#1f1749;fill-opacity:1;fill-rule:nonzero;stroke:none"
             d="m 0,0 c -0.314,0.205 -0.548,0.345 -0.768,0.503 -2.46,1.775 -4.912,3.562 -7.383,5.321 -0.382,0.273 -0.834,0.504 -1.287,0.608 -1.085,0.249 -1.929,-0.183 -2.627,-1.037 -1.704,-2.082 -3.44,-4.135 -5.162,-6.201 -1.656,-1.986 -3.309,-3.975 -4.969,-5.958 -0.489,-0.584 -0.819,-1.246 -0.624,-1.995 0.255,-0.976 0.815,-1.761 1.854,-2.048 0.956,-0.263 1.766,0.051 2.452,0.727 0.171,0.168 0.319,0.361 0.473,0.548 2.599,3.131 5.195,6.263 7.796,9.392 0.233,0.28 0.494,0.537 0.753,0.817 0.265,-0.171 0.441,-0.273 0.605,-0.392 2.454,-1.785 4.937,-3.532 7.347,-5.375 1.328,-1.015 3.014,-1.108 4.324,0.555 1.92,2.437 3.949,4.789 5.926,7.182 1.361,1.648 2.739,3.285 4.057,4.966 0.831,1.061 0.715,2.226 -0.194,3.188 -0.766,0.81 -2.144,0.963 -3.138,0.306 C 9.125,10.902 8.856,10.616 8.616,10.328 6.387,7.652 4.17,4.966 1.944,2.287 1.312,1.525 0.661,0.777 0,0 m -0.97,7.159 c 0.327,0.365 0.584,0.635 0.823,0.919 1.571,1.879 3.156,3.747 4.703,5.647 1.226,1.505 2.745,2.488 4.668,2.832 4.746,0.848 8.289,-2.025 9.231,-5.609 0.596,-2.265 0.057,-4.479 -1.344,-6.38 -1.042,-1.414 -2.215,-2.731 -3.338,-4.086 -2.31,-2.788 -4.64,-5.561 -6.935,-8.363 -2.257,-2.756 -5.17,-3.515 -8.536,-2.818 -0.757,0.157 -1.514,0.499 -2.17,0.914 -1.282,0.808 -2.49,1.733 -3.736,2.601 -0.332,0.233 -0.684,0.434 -1.073,0.677 -0.563,-0.67 -1.074,-1.27 -1.579,-1.878 -1.212,-1.459 -2.417,-2.924 -3.631,-4.381 -1.167,-1.401 -2.482,-2.589 -4.328,-3.027 -4.387,-1.04 -8.092,1.211 -9.415,4.643 -0.971,2.519 -0.794,5.031 0.985,7.227 2.128,2.627 4.291,5.227 6.445,7.832 1.363,1.649 2.779,3.255 4.097,4.939 2.198,2.805 7.259,3.714 10.456,1.616 1.267,-0.832 2.47,-1.763 3.705,-2.645 0.277,-0.199 0.564,-0.383 0.972,-0.66" /></g><g
           transform="translate(469.3413,62.5257)"
           id="g370"><path
             id="path372"
             style="fill:#1f1749;fill-opacity:1;fill-rule:nonzero;stroke:none"
             d="m 0,0 c -6.071,0 -12.144,-0.005 -18.215,0.003 -1.776,0.002 -3.006,1.689 -2.431,3.341 0.348,1.002 1.094,1.573 2.145,1.687 0.547,0.059 1.104,0.032 1.655,0.032 11.385,0.001 22.769,0.001 34.154,0 0.379,0 0.759,0.002 1.138,-0.021 C 19.67,4.969 20.647,4.115 20.826,2.979 21.016,1.776 20.265,0.451 19.136,0.082 18.819,-0.021 18.455,0.007 18.112,0.007 12.075,0.003 6.037,0.004 0,0.004 Z" /></g><g
           transform="translate(546.5874,77.6478)"
           id="g374"><path
             id="path376"
             style="fill:#1f1749;fill-opacity:1;fill-rule:nonzero;stroke:none"
             d="M 0,0 C 1.352,-0.039 2.65,-0.086 3.938,0.153 6.221,0.579 7.649,1.932 8.016,4.23 8.182,5.271 8.206,6.368 8.077,7.412 7.852,9.238 6.927,10.645 5.119,11.313 3.464,11.924 1.754,11.82 0,11.732 Z m -1.723,-1.385 v 14.487 c 0.105,0.066 0.162,0.135 0.218,0.134 1.96,-0.032 3.929,0.042 5.876,-0.133 C 7.163,12.852 9.105,11.035 9.777,8.306 10.243,6.415 10.168,4.531 9.519,2.709 8.646,0.26 6.769,-1.079 4.265,-1.363 2.359,-1.578 0.418,-1.474 -1.508,-1.505 c -0.058,-0.001 -0.118,0.064 -0.215,0.12" /></g><g
           transform="translate(644.5425,81.4085)"
           id="g378"><path
             id="path380"
             style="fill:#1f1749;fill-opacity:1;fill-rule:nonzero;stroke:none"
             d="m 0,0 c -0.1,0.845 -0.128,1.433 -0.244,2.001 -0.42,2.045 -1.863,2.921 -3.897,2.439 -0.96,-0.226 -1.59,-0.752 -1.885,-1.702 -0.473,-1.522 -0.487,-3.072 -0.111,-4.59 0.461,-1.858 1.498,-2.163 2.931,-2.22 1.221,-0.048 2.255,0.464 2.669,1.711 C -0.26,-1.525 -0.14,-0.636 0,0 m -8.055,10.391 h 1.593 V 4.407 c 0.233,0.212 0.35,0.323 0.471,0.429 2.676,2.329 6.543,1.135 7.41,-2.307 0.467,-1.851 0.448,-3.709 -0.332,-5.474 -1.214,-2.746 -4.801,-3.463 -7.033,-1.449 -0.143,0.129 -0.29,0.253 -0.505,0.441 -0.166,-0.469 -0.301,-0.849 -0.455,-1.281 h -1.149 z" /></g><g
           transform="translate(516.5161,76.1732)"
           id="g382"><path
             id="path384"
             style="fill:#1f1749;fill-opacity:1;fill-rule:nonzero;stroke:none"
             d="m 0,0 h -1.517 c -0.219,0.806 -0.248,14.605 -0.027,15.626 h 1.535 c 0.02,-1.961 0.003,-3.906 0.008,-5.971 0.798,0.73 1.54,1.39 2.548,1.449 0.85,0.05 1.732,0.078 2.558,-0.09 C 6.535,10.724 7.424,9.575 7.562,8.046 7.617,7.429 7.612,6.806 7.615,6.186 7.621,4.495 7.617,2.805 7.617,1.115 V 0.012 H 5.914 V 1.078 C 5.914,2.94 5.918,4.803 5.909,6.665 5.907,7.077 5.893,7.495 5.818,7.898 5.601,9.081 4.991,9.68 3.805,9.767 1.908,9.906 0.623,9.277 0.228,7.57 0.104,7.037 0.025,6.483 0.016,5.937 -0.014,4.317 0.002,2.695 0,1.074 Z" /></g><g
           transform="translate(655.4272,81.5345)"
           id="g386"><path
             id="path388"
             style="fill:#1f1749;fill-opacity:1;fill-rule:nonzero;stroke:none"
             d="m 0,0 c -1.311,-0.04 -2.604,-0.023 -3.865,-0.408 -0.163,-0.05 -0.333,-0.106 -0.476,-0.196 -0.662,-0.421 -0.989,-1.033 -0.981,-1.817 0.008,-0.668 0.258,-1.253 0.869,-1.533 1.422,-0.653 3.682,-0.189 4.321,1.632 C 0.12,-1.604 0.185,-0.857 0,0 M 1.752,-5.366 H 0.588 c -0.147,0.474 -0.284,0.918 -0.421,1.362 -0.067,0.045 -0.134,0.09 -0.201,0.135 -0.079,-0.154 -0.126,-0.34 -0.242,-0.459 -1.318,-1.359 -2.931,-1.578 -4.669,-1.109 -1.343,0.364 -2.014,1.335 -2.11,2.727 -0.129,1.864 0.682,2.82 2.163,3.324 0.898,0.307 1.876,0.4 2.827,0.522 0.706,0.091 1.425,0.076 2.136,0.107 0.233,0.839 0.051,1.535 -0.254,2.19 C -0.484,4.08 -1.071,4.436 -1.766,4.401 -2.581,4.362 -3.393,4.203 -4.198,4.054 -4.561,3.986 -4.904,3.818 -5.351,3.663 -5.512,4.068 -5.656,4.434 -5.835,4.883 -3.813,5.93 -1.806,6.25 0.261,5.361 0.719,5.164 1.144,4.667 1.365,4.203 1.639,3.632 1.793,2.954 1.807,2.317 c 0.052,-2.376 0.028,-4.754 0.027,-7.13 0,-0.166 -0.048,-0.332 -0.082,-0.553" /></g><g
           transform="translate(534.3843,82.7689)"
           id="g390"><path
             id="path392"
             style="fill:#1f1749;fill-opacity:1;fill-rule:nonzero;stroke:none"
             d="M 0,0 C 0.299,1.715 -0.837,3.186 -2.539,3.223 -4.232,3.26 -5.721,1.771 -5.484,0 Z m 1.933,-1.406 h -7.484 c -0.284,-2.126 1.176,-4.004 3.295,-3.936 1.216,0.039 2.387,0.197 3.521,0.613 0.424,-1.128 0.282,-1.488 -0.747,-1.775 -1.168,-0.325 -2.351,-0.491 -3.576,-0.298 -2.258,0.359 -3.707,1.626 -4.2,3.837 -0.345,1.543 -0.281,3.085 0.291,4.58 1.148,2.998 4.062,3.517 6.19,2.697 1.777,-0.686 2.48,-2.199 2.7,-3.976 0.065,-0.533 0.01,-1.082 0.01,-1.742" /></g><g
           transform="translate(584.8062,81.64)"
           id="g394"><path
             id="path396"
             style="fill:#1f1749;fill-opacity:1;fill-rule:nonzero;stroke:none"
             d="m 0,0 c -1.321,-0.163 -2.512,-0.269 -3.684,-0.478 -0.41,-0.073 -0.835,-0.339 -1.147,-0.63 -0.859,-0.799 -0.667,-2.42 0.326,-2.941 1.327,-0.696 4.135,-0.201 4.493,2.193 C 0.068,-1.323 0,-0.769 0,0 M 1.738,-5.472 H 0.553 c -0.137,0.443 -0.266,0.863 -0.417,1.353 -0.204,-0.15 -0.383,-0.247 -0.52,-0.386 -1.31,-1.335 -2.915,-1.457 -4.599,-1.044 -1.359,0.333 -2.161,1.52 -2.185,3.028 -0.022,1.37 0.815,2.625 2.2,3.044 0.912,0.277 1.881,0.386 2.833,0.507 0.676,0.086 1.364,0.068 2.165,0.1 0,0.494 0.033,0.932 -0.006,1.361 -0.098,1.07 -0.709,1.756 -1.773,1.795 C -2.523,4.314 -3.312,4.144 -4.083,4.003 -4.481,3.93 -4.856,3.727 -5.351,3.541 -5.519,3.92 -5.678,4.279 -5.852,4.672 c 0.723,0.698 1.63,0.844 2.485,0.973 0.803,0.121 1.655,0.099 2.462,-0.023 C 0.768,5.367 1.638,4.357 1.704,2.67 1.756,1.362 1.733,0.052 1.737,-1.257 1.741,-2.631 1.738,-4.004 1.738,-5.472" /></g><g
           transform="translate(566.0405,81.5804)"
           id="g398"><path
             id="path400"
             style="fill:#1f1749;fill-opacity:1;fill-rule:nonzero;stroke:none"
             d="m 0,0 c -1.183,-0.086 -2.142,-0.125 -3.092,-0.237 -0.434,-0.052 -0.876,-0.201 -1.274,-0.39 -0.72,-0.341 -1.034,-0.981 -1.063,-1.752 -0.025,-0.703 0.223,-1.332 0.879,-1.626 1.431,-0.643 3.786,-0.223 4.369,1.839 C -0.001,-1.53 -0.062,-0.827 0,0 M 1.672,-5.416 H 0.474 c -0.143,0.475 -0.277,0.919 -0.411,1.362 -0.077,0.05 -0.155,0.101 -0.232,0.151 -0.099,-0.184 -0.16,-0.404 -0.301,-0.544 -1.344,-1.345 -2.968,-1.503 -4.693,-0.992 -1.207,0.358 -1.863,1.221 -1.991,2.494 -0.14,1.388 0.222,2.533 1.504,3.244 0.986,0.548 2.074,0.728 3.184,0.787 0.787,0.042 1.575,0.067 2.339,0.099 0.573,1.853 -0.372,3.262 -2.187,3.176 -1.013,-0.048 -2.012,-0.377 -3.17,-0.609 -0.11,0.265 -0.269,0.649 -0.456,1.104 1.913,0.946 3.78,1.31 5.756,0.611 C 1.096,5.015 1.592,3.979 1.634,2.726 1.691,1.038 1.665,-0.652 1.671,-2.341 1.675,-3.335 1.672,-4.329 1.672,-5.416" /></g><g
           transform="translate(675.8384,81.6185)"
           id="g402"><path
             id="path404"
             style="fill:#1f1749;fill-opacity:1;fill-rule:nonzero;stroke:none"
             d="m 0,0 c -0.069,0.581 -0.104,1.168 -0.213,1.741 -0.426,2.223 -2.374,2.958 -4.239,2.45 -0.751,-0.205 -1.325,-0.629 -1.641,-1.31 -0.859,-1.853 -0.862,-3.743 -0.029,-5.602 0.512,-1.143 1.547,-1.548 2.712,-1.561 1.161,-0.014 2.155,0.376 2.767,1.475 0.49,0.88 0.581,1.829 0.643,2.807 m -8.517,0.147 c 0.121,0.746 0.162,1.514 0.376,2.23 0.551,1.838 1.77,2.992 3.7,3.316 3.296,0.555 5.678,-1.245 6.102,-4.559 0.142,-1.113 0.077,-2.202 -0.209,-3.274 -0.75,-2.81 -3.069,-3.758 -5.33,-3.557 -2.532,0.225 -4.188,1.961 -4.509,4.595 -0.049,0.41 -0.05,0.825 -0.073,1.237 -0.019,0.004 -0.038,0.009 -0.057,0.012" /></g><g
           transform="translate(623.6616,87.1673)"
           id="g406"><path
             id="path408"
             style="fill:#1f1749;fill-opacity:1;fill-rule:nonzero;stroke:none"
             d="m 0,0 h 1.624 c 0.025,-0.413 0.066,-0.782 0.068,-1.15 0.007,-1.828 0.001,-3.655 0.004,-5.483 0.001,-0.344 0.002,-0.69 0.037,-1.032 0.143,-1.355 0.734,-2.044 2.071,-2.151 1.864,-0.15 3.316,0.509 3.603,2.528 0.077,0.545 0.137,1.096 0.144,1.644 0.02,1.483 0.008,2.965 0.008,4.448 v 1.177 H 9.07 C 9.293,-0.7 9.375,-9.195 9.167,-10.987 H 7.879 c -0.093,0.422 -0.172,0.785 -0.275,1.252 -0.145,-0.093 -0.256,-0.139 -0.333,-0.217 -1.497,-1.52 -3.294,-1.569 -5.176,-1.003 -1.116,0.336 -1.76,1.173 -1.982,2.311 -0.092,0.472 -0.175,0.956 -0.179,1.434 -0.017,2.206 -0.006,4.412 0,6.619 C -0.065,-0.426 -0.03,-0.26 0,0" /></g><g
           transform="translate(602.8657,76.1644)"
           id="g410"><path
             id="path412"
             style="fill:#1f1749;fill-opacity:1;fill-rule:nonzero;stroke:none"
             d="m 0,0 h -1.623 v 10.96 h 1.239 c 0.117,-0.38 0.245,-0.793 0.403,-1.301 0.2,0.183 0.34,0.31 0.479,0.439 1.493,1.38 4.07,1.566 5.764,0.423 C 6.937,10.066 7.253,9.384 7.429,8.635 7.539,8.169 7.601,7.682 7.604,7.202 7.621,4.996 7.612,2.79 7.607,0.584 7.606,0.419 7.563,0.254 7.529,0.014 H 5.908 C 5.889,0.407 5.855,0.774 5.854,1.141 5.846,3.105 5.871,5.07 5.835,7.034 5.793,9.333 4.649,10.185 2.409,9.711 1.138,9.442 0.416,8.693 0.187,7.447 0.094,6.942 0.021,6.426 0.013,5.914 -0.011,4.328 0.001,2.743 0,1.157 -0.001,0.816 0,0.476 0,0" /></g><g
           transform="translate(508.1958,76.1781)"
           id="g414"><path
             id="path416"
             style="fill:#1f1749;fill-opacity:1;fill-rule:nonzero;stroke:none"
             d="m 0,0 h -1.719 v 13.159 h -4.658 v 1.515 H 4.597 V 13.189 H 0.025 C -0.013,8.737 0.029,4.406 0,0" /></g><g
           transform="translate(621.0513,77.7982)"
           id="g418"><path
             id="path420"
             style="fill:#1f1749;fill-opacity:1;fill-rule:nonzero;stroke:none"
             d="M 0,0 V -1.248 C -3.227,-3.16 -7.146,-1.283 -7.682,2.396 -7.89,3.829 -7.793,5.208 -7.324,6.567 -6.828,8.009 -5.826,8.936 -4.381,9.371 -2.924,9.81 -1.435,9.689 0.167,9.01 0.032,8.59 -0.106,8.158 -0.255,7.697 -0.92,7.821 -1.487,7.949 -2.062,8.03 -4.236,8.338 -5.705,7.235 -5.938,5.046 -6.028,4.197 -6.022,3.314 -5.899,2.471 -5.646,0.733 -4.615,-0.514 -2.61,-0.347 -1.76,-0.275 -0.917,-0.124 0,0" /></g><g
           transform="translate(665.6841,87.2581)"
           id="g422"><path
             id="path424"
             style="fill:#1f1749;fill-opacity:1;fill-rule:nonzero;stroke:none"
             d="m 0,0 v -1.343 h -3.177 v -1.562 c 10e-4,-1.552 -0.006,-3.105 0.004,-4.657 0.012,-1.979 0.762,-2.604 2.707,-2.277 0.133,0.023 0.272,0.016 0.499,0.028 v -1.215 c -0.991,-0.422 -2.015,-0.452 -3.026,-0.14 -1.105,0.341 -1.652,1.199 -1.82,2.299 -0.074,0.474 -0.066,0.963 -0.068,1.445 -0.006,1.965 -0.002,3.929 -0.002,5.982 -0.514,0.051 -0.981,0.098 -1.468,0.147 -0.233,0.396 -0.245,0.767 0.252,0.893 1.107,0.282 1.486,1.094 1.673,2.092 0.044,0.233 0.157,0.453 0.257,0.731 h 0.956 l 0,-2.423 z" /></g><g
           transform="translate(571.313,85.8353)"
           id="g426"><path
             id="path428"
             style="fill:#1f1749;fill-opacity:1;fill-rule:nonzero;stroke:none"
             d="m 0,0 c -0.573,0.048 -1.011,0.085 -1.46,0.122 -0.244,0.409 -0.226,0.72 0.242,0.919 0.191,0.081 0.368,0.199 0.565,0.254 0.488,0.136 0.714,0.472 0.836,0.937 0.139,0.531 0.323,1.048 0.501,1.616 H 1.67 V 1.415 H 4.843 V 0.087 H 1.785 C 1.749,-0.259 1.704,-0.489 1.704,-0.719 1.7,-2.58 1.692,-4.44 1.71,-6.301 1.727,-8.081 2.511,-8.73 4.257,-8.454 4.456,-8.423 4.658,-8.414 4.91,-8.39 4.948,-8.619 4.995,-8.813 5.007,-9.009 5.018,-9.177 4.989,-9.348 4.973,-9.591 3.798,-10.048 2.623,-10.113 1.486,-9.567 0.453,-9.07 0.04,-8.12 0.019,-7.021 -0.015,-5.367 0.003,-3.713 0,-2.059 -0.001,-1.407 0,-0.755 0,0" /></g><g
           transform="translate(595.7534,90.8783)"
           id="g430"><path
             id="path432"
             style="fill:#1f1749;fill-opacity:1;fill-rule:nonzero;stroke:none"
             d="M 0,0 H 1.461 C 1.696,-0.779 1.733,-13.621 1.5,-14.705 H 0.041 C -0.191,-13.926 -0.234,-1.226 0,0" /></g><g
           transform="translate(680.5522,87.1595)"
           id="g434"><path
             id="path436"
             style="fill:#1f1749;fill-opacity:1;fill-rule:nonzero;stroke:none"
             d="M 0,0 H 1.3 C 1.395,-0.6 1.482,-1.153 1.603,-1.905 2.813,-0.158 4.265,0.586 6.302,0.099 6.251,-0.381 6.204,-0.812 6.152,-1.298 5.865,-1.322 5.636,-1.364 5.407,-1.357 3.241,-1.293 1.793,-2.561 1.678,-4.729 1.604,-6.104 1.651,-7.485 1.646,-8.865 c -0.002,-0.681 0,-1.362 0,-2.115 H 0 Z" /></g><g
           id="g438"><g
             id="g440" /><g
             id="g496"><g
               style="opacity:0.10000598"
               id="g494"
               clip-path="url(#clipPath444)"><g
                 id="g452"
                 transform="translate(639.5568,190.3892)"><path
                   id="path450"
                   style="fill:#413a60;fill-opacity:1;fill-rule:nonzero;stroke:none"
                   d="m 0,0 c -39.227,-65.319 -107.397,-105.425 -182.172,-108.786 v -23.525 c 83.052,3.378 158.867,47.669 202.399,120.161 z" /></g><g
                 id="g456"
                 transform="translate(444.5174,179.5576)"><path
                   id="path454"
                   style="fill:#413a60;fill-opacity:1;fill-rule:nonzero;stroke:none"
                   d="m 0,0 c -51.588,0 -99.967,32.215 -117.975,83.581 -22.78,64.992 11.557,136.397 76.544,159.181 31.48,11.029 65.374,9.153 95.443,-5.309 L 43.785,216.189 C 19.4,227.918 -8.089,229.444 -33.624,220.494 -86.335,202.014 -114.184,144.098 -95.706,91.388 -77.23,38.68 -19.316,10.832 33.397,29.308 L 41.204,7.039 C 27.586,2.263 13.675,0 0,0" /></g><g
                 id="g460"
                 transform="translate(340.6348,428.7138)"><path
                   id="path458"
                   style="fill:#413a60;fill-opacity:1;fill-rule:nonzero;stroke:none"
                   d="m 0,0 c 28.069,24.046 63.852,38.045 102.157,38.918 l -0.539,23.59 C 57.361,61.497 16.025,45.206 -16.243,17.203 Z" /></g><g
                 id="g464"
                 transform="translate(306.8459,388.705)"><path
                   id="path462"
                   style="fill:#413a60;fill-opacity:1;fill-rule:nonzero;stroke:none"
                   d="M 0,0 C 4.201,6.997 8.915,13.547 13.991,19.727 L -2.311,36.995 C -8.859,29.274 -14.899,21.02 -20.227,12.148 c -25.617,-42.661 -33.088,-92.743 -21.036,-141.023 7.092,-28.41 20.487,-54.16 38.97,-75.794 l 16.734,16.734 c -15.517,18.594 -26.774,40.587 -32.812,64.776 C -28.897,-80.995 -22.371,-37.256 0,0" /></g><g
                 id="g480"><g
                   id="g478"
                   clip-path="url(#clipPath448)"><g
                     id="g468"
                     transform="translate(535.7233,168.9615)"><path
                       id="path466"
                       style="fill:#413a60;fill-opacity:1;fill-rule:nonzero;stroke:none"
                       d="m 0,0 c -51.953,-34.095 -119.917,-35.466 -173.15,-3.493 -7.575,4.549 -14.671,9.666 -21.301,15.248 l -16.73,-16.728 c 8.015,-6.894 16.634,-13.194 25.883,-18.75 29.356,-17.629 62.618,-26.4 95.865,-26.4 35.782,0 71.545,10.166 102.377,30.399 z" /></g><g
                     id="g472"
                     transform="translate(222.7074,294.7879)"><path
                       id="path470"
                       style="fill:#413a60;fill-opacity:1;fill-rule:nonzero;stroke:none"
                       d="m 0,0 h -23.593 c 3.761,-80.229 46.207,-157.214 120.073,-201.567 29.704,-17.835 61.849,-29.026 95.725,-33.389 v 23.852 c -29.524,4.214 -57.584,14.156 -83.577,29.767 C 42.111,-141.392 3.73,-72.216 0,0" /></g><g
                     id="g476"
                     transform="translate(234.1671,433.8186)"><path
                       id="path474"
                       style="fill:#413a60;fill-opacity:1;fill-rule:nonzero;stroke:none"
                       d="m 0,0 c -18.302,-30.481 -29.214,-63.358 -33.376,-96.559 h 23.745 c 4.036,29.034 13.841,57.736 29.858,84.411 63.763,106.186 202.031,140.705 308.221,76.939 l 12.15,20.227 C 223.247,155.492 70.459,117.34 0,0" /></g></g></g><g
                 id="g484"
                 transform="translate(585.823,396.3474)"><path
                   id="path482"
                   style="fill:#413a60;fill-opacity:1;fill-rule:nonzero;stroke:none"
                   d="M 0,0 20.012,12.397 C 3.007,38.605 -20.789,60.891 -50.45,76.279 c -18.008,9.339 -37.061,15.546 -56.525,18.678 l -3.713,-23.225 C -93.676,68.994 -77.027,63.543 -61.287,55.379 -35.531,42.02 -14.839,22.71 0,0" /></g><g
                 id="g488"
                 transform="translate(489.1814,294.2362)"><path
                   id="path486"
                   style="fill:#413a60;fill-opacity:1;fill-rule:nonzero;stroke:none"
                   d="m 0,0 c -1.049,-3.733 -2.566,-7.362 -4.618,-10.779 -6.026,-10.04 -15.603,-17.132 -26.968,-19.968 -11.358,-2.854 -23.15,-1.084 -33.192,4.951 -9.689,5.816 -16.59,14.957 -19.615,25.796 h -24.151 c 0.272,-1.517 0.525,-3.034 0.901,-4.543 4.365,-17.474 15.273,-32.208 30.717,-41.486 10.626,-6.376 22.518,-9.649 34.6,-9.649 5.478,0 11.001,0.671 16.455,2.037 17.48,4.363 32.209,15.274 41.484,30.716 4.364,7.267 7.177,15.037 8.571,22.925 z" /></g><g
                 id="g492"
                 transform="translate(404.7543,317.7765)"><path
                   id="path490"
                   style="fill:#413a60;fill-opacity:1;fill-rule:nonzero;stroke:none"
                   d="m 0,0 c 1.05,3.75 2.57,7.394 4.631,10.825 6.03,10.04 15.609,17.134 26.971,19.967 3.546,0.889 7.134,1.327 10.698,1.327 7.854,0 15.587,-2.129 22.492,-6.277 C 74.496,20.017 81.404,10.862 84.421,0 h 24.164 C 105.289,18.549 94.323,35.638 76.941,46.075 45.062,65.21 3.545,54.849 -15.596,22.971 -19.911,15.787 -22.74,8.012 -24.161,0 Z" /></g></g></g></g></g></g></g></svg>